<svg
                  
                  width="40"
                  height="23"
                  viewBox="0 0 50 33"
                  fill="none"
                  xmlns="http://www.w3.org/2000/svg"
                >
                  <path
                    d="M49.0527 10.6492C49.4336 10.3889 50 10.6324 50 11.0439V28.2188C50 30.4443 47.9004 32.25 45.3125 32.25H4.6875C2.09961 32.25 0 30.4443 0 28.2188V11.0523C0 10.6324 0.556641 10.3973 0.947266 10.6576C3.13477 12.1189 6.03516 13.975 15.9961 20.1982C18.0566 21.4916 21.5332 24.2127 25 24.1959C28.4863 24.2211 32.0312 21.4412 34.0137 20.1982C43.9746 13.975 46.8652 12.1105 49.0527 10.6492ZM25 21.5C27.2656 21.5336 30.5273 19.0477 32.168 18.023C45.127 9.93535 46.1133 9.22988 49.1016 7.21426C49.668 6.83633 50 6.24844 50 5.62695V4.03125C50 1.80566 47.9004 0 45.3125 0H4.6875C2.09961 0 0 1.80566 0 4.03125V5.62695C0 6.24844 0.332031 6.82793 0.898437 7.21426C3.88672 9.22148 4.87305 9.93535 17.832 18.023C19.4727 19.0477 22.7344 21.5336 25 21.5Z"
                    fill="#F5D749"
                  />
                </svg>