<svg
            width="111"
            height="40"
            viewBox="0 0 111 40"
            fill="none"
            xmlns="http://www.w3.org/2000/svg"
          >
            <g id="A|M|S">
              <path
                d="M18.9902 21.6895V15.5234C18.9902 14.6784 18.8255 13.8835 18.4961 13.1387C18.181 12.3796 17.7441 11.7207 17.1855 11.1621C16.627 10.6035 15.9681 10.1667 15.209 9.85156C14.4642 9.52214 13.6693 9.35742 12.8242 9.35742C11.9792 9.35742 11.1771 9.52214 10.418 9.85156C9.67318 10.1667 9.02148 10.6035 8.46289 11.1621C7.9043 11.7207 7.46029 12.3796 7.13086 13.1387C6.81576 13.8835 6.6582 14.6784 6.6582 15.5234V21.6895H18.9902ZM25.1562 34H18.9902V27.834H6.6582V34H0.513672V15.5234C0.513672 13.819 0.835938 12.222 1.48047 10.7324C2.125 9.22852 2.9987 7.91797 4.10156 6.80078C5.21875 5.68359 6.52214 4.80273 8.01172 4.1582C9.51562 3.51367 11.1198 3.19141 12.8242 3.19141C14.5286 3.19141 16.1257 3.51367 17.6152 4.1582C19.1191 4.80273 20.4297 5.68359 21.5469 6.80078C22.6641 7.91797 23.5449 9.22852 24.1895 10.7324C24.834 12.222 25.1562 13.819 25.1562 15.5234V34ZM32.6973 39.8008H31.5371V2.71875H32.6973V39.8008ZM81.209 39.8008H80.0488V2.71875H81.209V39.8008ZM85.9355 12.4297C85.9355 11.1549 86.179 9.95898 86.666 8.8418C87.153 7.72461 87.8118 6.75065 88.6426 5.91992C89.4876 5.07487 90.4688 4.40885 91.5859 3.92188C92.7031 3.4349 93.8991 3.19141 95.1738 3.19141H109.311V9.35742H95.1738C94.7441 9.35742 94.3431 9.4362 93.9707 9.59375C93.5983 9.7513 93.2689 9.97331 92.9824 10.2598C92.7103 10.5319 92.4954 10.8542 92.3379 11.2266C92.1803 11.599 92.1016 12 92.1016 12.4297C92.1016 12.8594 92.1803 13.2676 92.3379 13.6543C92.4954 14.0267 92.7103 14.3561 92.9824 14.6426C93.2689 14.9147 93.5983 15.1296 93.9707 15.2871C94.3431 15.4447 94.7441 15.5234 95.1738 15.5234H101.34C102.615 15.5234 103.811 15.7669 104.928 16.2539C106.059 16.7266 107.04 17.3854 107.871 18.2305C108.716 19.0612 109.375 20.0423 109.848 21.1738C110.335 22.291 110.578 23.487 110.578 24.7617C110.578 26.0365 110.335 27.2324 109.848 28.3496C109.375 29.4668 108.716 30.4479 107.871 31.293C107.04 32.1237 106.059 32.7826 104.928 33.2695C103.811 33.7565 102.615 34 101.34 34H87.6543V27.834H101.34C101.77 27.834 102.171 27.7552 102.543 27.5977C102.915 27.4401 103.238 27.2253 103.51 26.9531C103.796 26.6667 104.018 26.3372 104.176 25.9648C104.333 25.5924 104.412 25.1914 104.412 24.7617C104.412 24.332 104.333 23.931 104.176 23.5586C104.018 23.1862 103.796 22.8639 103.51 22.5918C103.238 22.3053 102.915 22.0833 102.543 21.9258C102.171 21.7682 101.77 21.6895 101.34 21.6895H95.1738C93.8991 21.6895 92.7031 21.446 91.5859 20.959C90.4688 20.472 89.4876 19.8132 88.6426 18.9824C87.8118 18.1374 87.153 17.1562 86.666 16.0391C86.179 14.9076 85.9355 13.7044 85.9355 12.4297Z"
                fill="#FFFAE9"
              />
              <path
                d="M40.2871 0.691999C40.5511 1.10267 41.0938 1.89467 41.9151 3.068C42.7658 4.212 43.7338 5.54666 44.8191 7.072C45.9338 8.59733 47.1071 10.2253 48.3391 11.956C49.5711 13.6573 50.7298 15.2707 51.8151 16.796C52.9004 18.292 53.8391 19.5973 54.6311 20.712C55.4524 21.8267 55.9951 22.56 56.2591 22.912C56.3471 22.7653 56.6258 22.3693 57.0951 21.724C57.5644 21.0787 58.1364 20.272 58.8111 19.304C59.5151 18.336 60.3071 17.2507 61.1871 16.048C62.0671 14.816 62.9618 13.5693 63.8711 12.308C64.8098 11.0173 65.7191 9.74133 66.5991 8.48C67.5084 7.21867 68.3444 6.07467 69.1071 5.048C69.8698 3.992 70.5151 3.08267 71.0431 2.32C71.6004 1.528 71.9964 0.985332 72.2311 0.691999V34H67.1271V16.136C67.1271 15.9013 67.1418 15.652 67.1711 15.388C67.2298 15.124 67.2591 14.9333 67.2591 14.816C66.9951 15.168 66.5698 15.7693 65.9831 16.62C65.4258 17.4413 64.7658 18.3947 64.0031 19.48C63.2698 20.536 62.4924 21.6653 61.6711 22.868C60.8498 24.0413 60.0724 25.156 59.3391 26.212C58.6058 27.268 57.9604 28.2067 57.4031 29.028C56.8458 29.82 56.4644 30.3773 56.2591 30.7C56.0538 30.436 55.6431 29.8933 55.0271 29.072C54.4404 28.2213 53.7364 27.2387 52.9151 26.124C52.1231 25.0093 51.2724 23.8213 50.3631 22.56C49.4831 21.2987 48.6618 20.1253 47.8991 19.04C47.1364 17.9547 46.4764 17.0307 45.9191 16.268C45.3618 15.476 45.0391 14.992 44.9511 14.816C44.9511 14.9333 44.9658 15.124 44.9951 15.388C45.0538 15.652 45.0831 15.9013 45.0831 16.136V34H40.2871V0.691999Z"
                fill="#F5D749"
              />
            </g>
          </svg>